<svg width="154" height="12" viewBox="0 0 154 12" fill="none" xmlns="http://www.w3.org/2000/svg">
<path d="M0.612 5.52C0.612 4.856 0.724 4.264 0.948 3.744C1.172 3.216 1.476 2.772 1.86 2.412C2.244 2.052 2.692 1.776 3.204 1.584C3.716 1.392 4.26 1.296 4.836 1.296C5.412 1.296 5.956 1.392 6.468 1.584C6.98 1.776 7.428 2.052 7.812 2.412C8.196 2.772 8.5 3.216 8.724 3.744C8.948 4.264 9.06 4.856 9.06 5.52C9.06 6.184 8.948 6.78 8.724 7.308C8.5 7.828 8.196 8.268 7.812 8.628C7.428 8.988 6.98 9.264 6.468 9.456C5.956 9.648 5.412 9.744 4.836 9.744C4.196 9.744 3.616 9.648 3.096 9.456C2.576 9.264 2.132 8.988 1.764 8.628C1.396 8.268 1.112 7.828 0.912 7.308C0.712 6.78 0.612 6.184 0.612 5.52ZM1.452 5.52C1.452 6.072 1.54 6.564 1.716 6.996C1.892 7.42 2.132 7.776 2.436 8.064C2.74 8.352 3.096 8.572 3.504 8.724C3.92 8.876 4.364 8.952 4.836 8.952C5.308 8.952 5.748 8.876 6.156 8.724C6.572 8.572 6.932 8.352 7.236 8.064C7.54 7.776 7.78 7.42 7.956 6.996C8.132 6.564 8.22 6.072 8.22 5.52C8.22 4.968 8.132 4.48 7.956 4.056C7.78 3.624 7.54 3.264 7.236 2.976C6.932 2.688 6.572 2.468 6.156 2.316C5.748 2.164 5.308 2.088 4.836 2.088C4.364 2.088 3.92 2.164 3.504 2.316C3.096 2.468 2.74 2.688 2.436 2.976C2.132 3.264 1.892 3.624 1.716 4.056C1.54 4.48 1.452 4.968 1.452 5.52ZM6.228 7.476C6.044 7.58 5.836 7.66 5.604 7.716C5.38 7.772 5.116 7.8 4.812 7.8C4.164 7.8 3.668 7.596 3.324 7.188C2.988 6.78 2.82 6.224 2.82 5.52C2.82 4.792 3 4.232 3.36 3.84C3.728 3.44 4.212 3.24 4.812 3.24C4.956 3.24 5.084 3.248 5.196 3.264C5.316 3.28 5.424 3.304 5.52 3.336C5.624 3.36 5.724 3.392 5.82 3.432C5.916 3.472 6.024 3.516 6.144 3.564L5.832 4.296C5.656 4.208 5.488 4.148 5.328 4.116C5.168 4.084 5.032 4.068 4.92 4.068C4.584 4.068 4.308 4.172 4.092 4.38C3.884 4.588 3.78 4.968 3.78 5.52C3.78 5.984 3.884 6.344 4.092 6.6C4.3 6.848 4.608 6.976 5.016 6.984C5.392 6.984 5.712 6.912 5.976 6.768L6.228 7.476ZM18.2192 2.508C18.2192 2.932 18.1392 3.368 17.9792 3.816C17.8272 4.256 17.6232 4.7 17.3672 5.148C17.1192 5.596 16.8392 6.036 16.5272 6.468C16.2152 6.892 15.9032 7.296 15.5912 7.68L15.0032 8.196V8.244L15.7712 8.112H18.3872V9H13.6112V8.652C13.7872 8.468 13.9992 8.24 14.2472 7.968C14.4952 7.696 14.7512 7.396 15.0152 7.068C15.2872 6.732 15.5512 6.38 15.8072 6.012C16.0712 5.636 16.3072 5.256 16.5152 4.872C16.7312 4.488 16.9032 4.108 17.0312 3.732C17.1592 3.356 17.2232 3 17.2232 2.664C17.2232 2.272 17.1112 1.948 16.8872 1.692C16.6632 1.428 16.3232 1.296 15.8672 1.296C15.5632 1.296 15.2672 1.36 14.9792 1.488C14.6912 1.608 14.4432 1.748 14.2352 1.908L13.8392 1.224C14.1192 0.984 14.4512 0.796 14.8352 0.659999C15.2192 0.524 15.6312 0.456 16.0712 0.456C16.4152 0.456 16.7192 0.508 16.9832 0.611999C17.2472 0.707999 17.4712 0.848 17.6552 1.032C17.8392 1.216 17.9792 1.436 18.0752 1.692C18.1712 1.94 18.2192 2.212 18.2192 2.508ZM19.9223 4.8C19.9223 3.36 20.1543 2.276 20.6183 1.548C21.0903 0.82 21.7743 0.456 22.6703 0.456C23.6383 0.456 24.3383 0.816 24.7703 1.536C25.2103 2.248 25.4303 3.336 25.4303 4.8C25.4303 6.24 25.1943 7.324 24.7223 8.052C24.2583 8.78 23.5743 9.144 22.6703 9.144C21.7183 9.144 21.0223 8.764 20.5823 8.004C20.1423 7.244 19.9223 6.176 19.9223 4.8ZM20.9183 4.8C20.9183 5.32 20.9503 5.796 21.0143 6.228C21.0863 6.652 21.1943 7.02 21.3383 7.332C21.4823 7.636 21.6623 7.876 21.8783 8.052C22.1023 8.22 22.3663 8.304 22.6703 8.304C23.2783 8.304 23.7223 8.024 24.0023 7.464C24.2903 6.896 24.4343 6.008 24.4343 4.8C24.4343 4.288 24.4023 3.816 24.3383 3.384C24.2823 2.952 24.1823 2.58 24.0383 2.268C23.9023 1.956 23.7223 1.716 23.4983 1.548C23.2743 1.38 22.9983 1.296 22.6703 1.296C22.0703 1.296 21.6263 1.58 21.3383 2.148C21.0583 2.716 20.9183 3.6 20.9183 4.8ZM31.2973 2.508C31.2973 2.932 31.2173 3.368 31.0573 3.816C30.9053 4.256 30.7013 4.7 30.4453 5.148C30.1973 5.596 29.9173 6.036 29.6053 6.468C29.2933 6.892 28.9813 7.296 28.6693 7.68L28.0813 8.196V8.244L28.8493 8.112H31.4653V9H26.6893V8.652C26.8653 8.468 27.0773 8.24 27.3253 7.968C27.5733 7.696 27.8293 7.396 28.0933 7.068C28.3653 6.732 28.6293 6.38 28.8853 6.012C29.1493 5.636 29.3853 5.256 29.5933 4.872C29.8093 4.488 29.9813 4.108 30.1093 3.732C30.2373 3.356 30.3013 3 30.3013 2.664C30.3013 2.272 30.1893 1.948 29.9653 1.692C29.7413 1.428 29.4013 1.296 28.9453 1.296C28.6413 1.296 28.3453 1.36 28.0573 1.488C27.7693 1.608 27.5213 1.748 27.3133 1.908L26.9173 1.224C27.1973 0.984 27.5293 0.796 27.9133 0.659999C28.2973 0.524 28.7093 0.456 29.1493 0.456C29.4933 0.456 29.7973 0.508 30.0613 0.611999C30.3253 0.707999 30.5493 0.848 30.7333 1.032C30.9173 1.216 31.0573 1.436 31.1533 1.692C31.2493 1.94 31.2973 2.212 31.2973 2.508ZM33.0004 4.8C33.0004 3.36 33.2324 2.276 33.6964 1.548C34.1684 0.82 34.8524 0.456 35.7484 0.456C36.7164 0.456 37.4164 0.816 37.8484 1.536C38.2884 2.248 38.5084 3.336 38.5084 4.8C38.5084 6.24 38.2724 7.324 37.8004 8.052C37.3364 8.78 36.6524 9.144 35.7484 9.144C34.7964 9.144 34.1004 8.764 33.6604 8.004C33.2204 7.244 33.0004 6.176 33.0004 4.8ZM33.9964 4.8C33.9964 5.32 34.0284 5.796 34.0924 6.228C34.1644 6.652 34.2724 7.02 34.4164 7.332C34.5604 7.636 34.7404 7.876 34.9564 8.052C35.1804 8.22 35.4444 8.304 35.7484 8.304C36.3564 8.304 36.8004 8.024 37.0804 7.464C37.3684 6.896 37.5124 6.008 37.5124 4.8C37.5124 4.288 37.4804 3.816 37.4164 3.384C37.3604 2.952 37.2604 2.58 37.1164 2.268C36.9804 1.956 36.8004 1.716 36.5764 1.548C36.3524 1.38 36.0764 1.296 35.7484 1.296C35.1484 1.296 34.7044 1.58 34.4164 2.148C34.1364 2.716 33.9964 3.6 33.9964 4.8ZM48.3067 2.52C48.3067 2.72 48.2747 2.924 48.2107 3.132C48.1467 3.34 48.0507 3.536 47.9227 3.72C47.7947 3.896 47.6307 4.052 47.4307 4.188C47.2307 4.324 46.9947 4.428 46.7227 4.5V4.548C46.9627 4.588 47.1907 4.656 47.4067 4.752C47.6307 4.848 47.8267 4.98 47.9947 5.148C48.1627 5.316 48.2987 5.52 48.4027 5.76C48.5067 6 48.5587 6.284 48.5587 6.612C48.5587 7.044 48.4667 7.42 48.2827 7.74C48.1067 8.052 47.8707 8.308 47.5747 8.508C47.2867 8.708 46.9547 8.856 46.5787 8.952C46.2027 9.048 45.8187 9.096 45.4267 9.096C45.2907 9.096 45.1307 9.096 44.9467 9.096C44.7627 9.096 44.5707 9.088 44.3707 9.072C44.1707 9.064 43.9707 9.048 43.7707 9.024C43.5707 9.008 43.3947 8.98 43.2427 8.94V0.672C43.5387 0.624 43.8827 0.583999 44.2747 0.551999C44.6667 0.52 45.0947 0.504 45.5587 0.504C45.8707 0.504 46.1867 0.532 46.5067 0.588C46.8347 0.635999 47.1307 0.735999 47.3947 0.887999C47.6587 1.032 47.8747 1.236 48.0427 1.5C48.2187 1.764 48.3067 2.104 48.3067 2.52ZM45.5227 8.232C45.7787 8.232 46.0267 8.204 46.2667 8.148C46.5067 8.084 46.7187 7.988 46.9027 7.86C47.0867 7.724 47.2307 7.56 47.3347 7.368C47.4467 7.176 47.5027 6.948 47.5027 6.684C47.5027 6.356 47.4347 6.092 47.2987 5.892C47.1707 5.692 46.9987 5.536 46.7827 5.424C46.5747 5.312 46.3387 5.236 46.0747 5.196C45.8107 5.156 45.5467 5.136 45.2827 5.136H44.2387V8.148C44.2947 8.164 44.3747 8.176 44.4787 8.184C44.5827 8.192 44.6947 8.2 44.8147 8.208C44.9347 8.216 45.0587 8.224 45.1867 8.232C45.3147 8.232 45.4267 8.232 45.5227 8.232ZM44.8627 4.296C44.9987 4.296 45.1627 4.292 45.3547 4.284C45.5467 4.276 45.7067 4.264 45.8347 4.248C46.0267 4.184 46.2067 4.108 46.3747 4.02C46.5427 3.924 46.6907 3.816 46.8187 3.696C46.9547 3.568 47.0587 3.424 47.1307 3.264C47.2107 3.096 47.2507 2.916 47.2507 2.724C47.2507 2.46 47.1987 2.244 47.0947 2.076C46.9987 1.9 46.8667 1.76 46.6987 1.656C46.5307 1.552 46.3387 1.48 46.1227 1.44C45.9067 1.392 45.6867 1.368 45.4627 1.368C45.1987 1.368 44.9547 1.376 44.7307 1.392C44.5147 1.4 44.3507 1.416 44.2387 1.44V4.296H44.8627ZM54.2465 8.604C54.0065 8.78 53.7225 8.912 53.3945 9C53.0665 9.096 52.7225 9.144 52.3625 9.144C51.8985 9.144 51.5065 9.072 51.1865 8.928C50.8665 8.776 50.6025 8.564 50.3945 8.292C50.1945 8.012 50.0465 7.68 49.9505 7.296C49.8625 6.904 49.8185 6.472 49.8185 6C49.8185 4.984 50.0425 4.208 50.4905 3.672C50.9385 3.128 51.5825 2.856 52.4225 2.856C52.8065 2.856 53.1305 2.888 53.3945 2.952C53.6665 3.008 53.9105 3.092 54.1265 3.204L53.8505 4.032C53.6665 3.928 53.4625 3.848 53.2385 3.792C53.0145 3.728 52.7745 3.696 52.5185 3.696C51.3825 3.696 50.8145 4.464 50.8145 6C50.8145 6.304 50.8425 6.596 50.8985 6.876C50.9625 7.148 51.0625 7.392 51.1985 7.608C51.3425 7.816 51.5265 7.984 51.7505 8.112C51.9825 8.24 52.2665 8.304 52.6025 8.304C52.8905 8.304 53.1465 8.26 53.3705 8.172C53.6025 8.084 53.7905 7.984 53.9345 7.872L54.2465 8.604ZM59.6673 8.52C59.4273 8.712 59.1233 8.864 58.7553 8.976C58.3953 9.088 58.0113 9.144 57.6033 9.144C57.1473 9.144 56.7513 9.072 56.4153 8.928C56.0793 8.776 55.8033 8.564 55.5873 8.292C55.3713 8.012 55.2113 7.68 55.1073 7.296C55.0033 6.912 54.9513 6.48 54.9513 6C54.9513 4.976 55.1793 4.196 55.6353 3.66C56.0913 3.124 56.7433 2.856 57.5913 2.856C57.8633 2.856 58.1353 2.888 58.4073 2.952C58.6793 3.008 58.9233 3.12 59.1393 3.288C59.3553 3.456 59.5313 3.696 59.6673 4.008C59.8033 4.312 59.8713 4.716 59.8713 5.22C59.8713 5.484 59.8473 5.776 59.7993 6.096H55.9473C55.9473 6.448 55.9833 6.76 56.0553 7.032C56.1273 7.304 56.2393 7.536 56.3913 7.728C56.5433 7.912 56.7393 8.056 56.9793 8.16C57.2273 8.256 57.5273 8.304 57.8793 8.304C58.1513 8.304 58.4233 8.256 58.6953 8.16C58.9673 8.064 59.1713 7.952 59.3073 7.824L59.6673 8.52ZM57.6033 3.696C57.1313 3.696 56.7513 3.82 56.4633 4.068C56.1833 4.316 56.0153 4.74 55.9593 5.34H58.9353C58.9353 4.732 58.8193 4.308 58.5873 4.068C58.3553 3.82 58.0273 3.696 57.6033 3.696ZM68.1923 3.84H65.5403V9H64.5803V3H69.1523V9H68.1923V3.84ZM71.0021 3H71.6621L71.8421 3.72H71.8901C72.0741 3.44 72.3101 3.228 72.5981 3.084C72.8941 2.932 73.2301 2.856 73.6061 2.856C74.4061 2.856 75.0021 3.092 75.3941 3.564C75.7861 4.036 75.9821 4.808 75.9821 5.88C75.9821 6.384 75.9141 6.84 75.7781 7.248C75.6501 7.648 75.4661 7.988 75.2261 8.268C74.9861 8.548 74.6941 8.764 74.3501 8.916C74.0141 9.068 73.6381 9.144 73.2221 9.144C72.9261 9.144 72.6901 9.124 72.5141 9.084C72.3461 9.052 72.1621 8.992 71.9621 8.904V11.4H71.0021V3ZM73.4261 3.696C73.0181 3.696 72.6941 3.804 72.4541 4.02C72.2221 4.228 72.0581 4.548 71.9621 4.98V7.956C72.1061 8.068 72.2701 8.156 72.4541 8.22C72.6381 8.276 72.8821 8.304 73.1861 8.304C73.7381 8.304 74.1741 8.1 74.4941 7.692C74.8221 7.276 74.9861 6.668 74.9861 5.868C74.9861 5.54 74.9581 5.244 74.9021 4.98C74.8461 4.708 74.7541 4.48 74.6261 4.296C74.5061 4.104 74.3461 3.956 74.1461 3.852C73.9541 3.748 73.7141 3.696 73.4261 3.696ZM77.3983 3.444C77.7023 3.26 78.0543 3.124 78.4543 3.036C78.8623 2.948 79.2863 2.904 79.7263 2.904C80.1423 2.904 80.4743 2.96 80.7223 3.072C80.9783 3.184 81.1703 3.332 81.2983 3.516C81.4343 3.692 81.5223 3.888 81.5623 4.104C81.6103 4.32 81.6343 4.536 81.6343 4.752C81.6343 5.232 81.6223 5.7 81.5983 6.156C81.5743 6.612 81.5623 7.044 81.5623 7.452C81.5623 7.748 81.5743 8.028 81.5983 8.292C81.6223 8.556 81.6663 8.8 81.7303 9.024H81.0223L80.7703 8.184H80.7103C80.6383 8.296 80.5463 8.408 80.4343 8.52C80.3303 8.624 80.2023 8.72 80.0503 8.808C79.8983 8.888 79.7223 8.956 79.5223 9.012C79.3223 9.068 79.0943 9.096 78.8383 9.096C78.5823 9.096 78.3423 9.056 78.1183 8.976C77.9023 8.896 77.7143 8.784 77.5543 8.64C77.3943 8.488 77.2663 8.308 77.1703 8.1C77.0823 7.892 77.0383 7.656 77.0383 7.392C77.0383 7.04 77.1103 6.748 77.2543 6.516C77.3983 6.276 77.5983 6.088 77.8543 5.952C78.1183 5.808 78.4303 5.708 78.7903 5.652C79.1583 5.588 79.5623 5.556 80.0023 5.556C80.1143 5.556 80.2223 5.556 80.3263 5.556C80.4383 5.556 80.5503 5.564 80.6623 5.58C80.6863 5.34 80.6983 5.124 80.6983 4.932C80.6983 4.492 80.6103 4.184 80.4343 4.008C80.2583 3.832 79.9383 3.744 79.4743 3.744C79.3383 3.744 79.1903 3.756 79.0303 3.78C78.8783 3.796 78.7183 3.824 78.5503 3.864C78.3903 3.896 78.2343 3.94 78.0823 3.996C77.9383 4.044 77.8103 4.1 77.6983 4.164L77.3983 3.444ZM79.1023 8.256C79.3263 8.256 79.5263 8.228 79.7023 8.172C79.8783 8.108 80.0303 8.032 80.1583 7.944C80.2863 7.848 80.3903 7.744 80.4703 7.632C80.5583 7.52 80.6223 7.412 80.6623 7.308V6.312C80.5503 6.304 80.4343 6.3 80.3143 6.3C80.2023 6.292 80.0903 6.288 79.9783 6.288C79.7303 6.288 79.4863 6.304 79.2463 6.336C79.0143 6.36 78.8063 6.412 78.6223 6.492C78.4463 6.564 78.3023 6.668 78.1903 6.804C78.0863 6.932 78.0343 7.096 78.0343 7.296C78.0343 7.576 78.1343 7.808 78.3343 7.992C78.5343 8.168 78.7903 8.256 79.1023 8.256ZM83.4474 3.012C83.7274 2.996 84.0194 2.976 84.3234 2.952C84.6354 2.928 85.0194 2.916 85.4754 2.916C86.2674 2.916 86.8354 3.04 87.1794 3.288C87.5234 3.528 87.6954 3.896 87.6954 4.392C87.6954 4.672 87.6114 4.948 87.4434 5.22C87.2834 5.484 87.0154 5.68 86.6394 5.808V5.856C87.1114 5.944 87.4434 6.108 87.6354 6.348C87.8274 6.588 87.9234 6.908 87.9234 7.308C87.9234 7.932 87.6994 8.384 87.2514 8.664C86.8034 8.944 86.1314 9.084 85.2354 9.084C84.8994 9.084 84.5874 9.072 84.2994 9.048C84.0114 9.032 83.7274 9.012 83.4474 8.988V3.012ZM84.4074 8.196C84.5594 8.212 84.7074 8.224 84.8514 8.232C85.0034 8.24 85.1794 8.244 85.3794 8.244C85.9154 8.244 86.3114 8.168 86.5674 8.016C86.8314 7.864 86.9634 7.604 86.9634 7.236C86.9634 6.948 86.8514 6.716 86.6274 6.54C86.4114 6.356 86.0234 6.264 85.4634 6.264H84.4074V8.196ZM85.5834 5.532C85.7274 5.532 85.8674 5.508 86.0034 5.46C86.1394 5.412 86.2594 5.348 86.3634 5.268C86.4754 5.18 86.5634 5.08 86.6274 4.968C86.6994 4.856 86.7354 4.736 86.7354 4.608C86.7354 4.288 86.6394 4.068 86.4474 3.948C86.2554 3.82 85.9194 3.756 85.4394 3.756C85.1834 3.756 84.9794 3.76 84.8274 3.768C84.6834 3.776 84.5434 3.784 84.4074 3.792V5.532H85.5834ZM89.3397 3.444C89.6437 3.26 89.9957 3.124 90.3957 3.036C90.8037 2.948 91.2277 2.904 91.6677 2.904C92.0837 2.904 92.4157 2.96 92.6637 3.072C92.9197 3.184 93.1117 3.332 93.2397 3.516C93.3757 3.692 93.4637 3.888 93.5037 4.104C93.5517 4.32 93.5757 4.536 93.5757 4.752C93.5757 5.232 93.5637 5.7 93.5397 6.156C93.5157 6.612 93.5037 7.044 93.5037 7.452C93.5037 7.748 93.5157 8.028 93.5397 8.292C93.5637 8.556 93.6077 8.8 93.6717 9.024H92.9637L92.7117 8.184H92.6517C92.5797 8.296 92.4877 8.408 92.3757 8.52C92.2717 8.624 92.1437 8.72 91.9917 8.808C91.8397 8.888 91.6637 8.956 91.4637 9.012C91.2637 9.068 91.0357 9.096 90.7797 9.096C90.5237 9.096 90.2837 9.056 90.0597 8.976C89.8437 8.896 89.6557 8.784 89.4957 8.64C89.3357 8.488 89.2077 8.308 89.1117 8.1C89.0237 7.892 88.9797 7.656 88.9797 7.392C88.9797 7.04 89.0517 6.748 89.1957 6.516C89.3397 6.276 89.5397 6.088 89.7957 5.952C90.0597 5.808 90.3717 5.708 90.7317 5.652C91.0997 5.588 91.5037 5.556 91.9437 5.556C92.0557 5.556 92.1637 5.556 92.2677 5.556C92.3797 5.556 92.4917 5.564 92.6037 5.58C92.6277 5.34 92.6397 5.124 92.6397 4.932C92.6397 4.492 92.5517 4.184 92.3757 4.008C92.1997 3.832 91.8797 3.744 91.4157 3.744C91.2797 3.744 91.1317 3.756 90.9717 3.78C90.8197 3.796 90.6597 3.824 90.4917 3.864C90.3317 3.896 90.1757 3.94 90.0237 3.996C89.8797 4.044 89.7517 4.1 89.6397 4.164L89.3397 3.444ZM91.0437 8.256C91.2677 8.256 91.4677 8.228 91.6437 8.172C91.8197 8.108 91.9717 8.032 92.0997 7.944C92.2277 7.848 92.3317 7.744 92.4117 7.632C92.4997 7.52 92.5637 7.412 92.6037 7.308V6.312C92.4917 6.304 92.3757 6.3 92.2557 6.3C92.1437 6.292 92.0317 6.288 91.9197 6.288C91.6717 6.288 91.4277 6.304 91.1877 6.336C90.9557 6.36 90.7477 6.412 90.5637 6.492C90.3877 6.564 90.2437 6.668 90.1317 6.804C90.0277 6.932 89.9757 7.096 89.9757 7.296C89.9757 7.576 90.0757 7.808 90.2757 7.992C90.4757 8.168 90.7317 8.256 91.0437 8.256ZM99.1641 6.324V5.544H100.004C100.148 5.544 100.288 5.52 100.424 5.472C100.568 5.424 100.696 5.36 100.808 5.28C100.92 5.192 101.008 5.092 101.072 4.98C101.144 4.86 101.18 4.736 101.18 4.608C101.18 4.296 101.072 4.076 100.856 3.948C100.64 3.82 100.316 3.756 99.8841 3.756C99.5721 3.756 99.2841 3.804 99.0201 3.9C98.7641 3.996 98.5641 4.088 98.4201 4.176L98.1441 3.432C98.3841 3.296 98.6641 3.176 98.9841 3.072C99.3121 2.968 99.7001 2.916 100.148 2.916C101.476 2.916 102.14 3.408 102.14 4.392C102.14 4.672 102.048 4.948 101.864 5.22C101.688 5.484 101.432 5.672 101.096 5.784V5.832C101.568 5.92 101.896 6.088 102.08 6.336C102.272 6.584 102.368 6.912 102.368 7.32C102.368 7.576 102.316 7.812 102.212 8.028C102.108 8.244 101.952 8.432 101.744 8.592C101.536 8.752 101.272 8.88 100.952 8.976C100.64 9.064 100.276 9.108 99.8601 9.108C99.4521 9.108 99.1121 9.072 98.8401 9C98.5761 8.928 98.3361 8.84 98.1201 8.736L98.3961 7.944C98.5801 8.048 98.8001 8.128 99.0561 8.184C99.3201 8.24 99.6041 8.268 99.9081 8.268C100.396 8.268 100.768 8.184 101.024 8.016C101.28 7.848 101.408 7.592 101.408 7.248C101.408 6.96 101.288 6.736 101.048 6.576C100.808 6.408 100.412 6.324 99.8601 6.324H99.1641ZM103.789 3.444C104.093 3.26 104.445 3.124 104.845 3.036C105.253 2.948 105.677 2.904 106.117 2.904C106.533 2.904 106.865 2.96 107.113 3.072C107.369 3.184 107.561 3.332 107.689 3.516C107.825 3.692 107.913 3.888 107.953 4.104C108.001 4.32 108.025 4.536 108.025 4.752C108.025 5.232 108.013 5.7 107.989 6.156C107.965 6.612 107.953 7.044 107.953 7.452C107.953 7.748 107.965 8.028 107.989 8.292C108.013 8.556 108.057 8.8 108.121 9.024H107.413L107.161 8.184H107.101C107.029 8.296 106.937 8.408 106.825 8.52C106.721 8.624 106.593 8.72 106.441 8.808C106.289 8.888 106.113 8.956 105.913 9.012C105.713 9.068 105.485 9.096 105.229 9.096C104.973 9.096 104.733 9.056 104.509 8.976C104.293 8.896 104.105 8.784 103.945 8.64C103.785 8.488 103.657 8.308 103.561 8.1C103.473 7.892 103.429 7.656 103.429 7.392C103.429 7.04 103.501 6.748 103.645 6.516C103.789 6.276 103.989 6.088 104.245 5.952C104.509 5.808 104.821 5.708 105.181 5.652C105.549 5.588 105.953 5.556 106.393 5.556C106.505 5.556 106.613 5.556 106.717 5.556C106.829 5.556 106.941 5.564 107.053 5.58C107.077 5.34 107.089 5.124 107.089 4.932C107.089 4.492 107.001 4.184 106.825 4.008C106.649 3.832 106.329 3.744 105.865 3.744C105.729 3.744 105.581 3.756 105.421 3.78C105.269 3.796 105.109 3.824 104.941 3.864C104.781 3.896 104.625 3.94 104.473 3.996C104.329 4.044 104.201 4.1 104.089 4.164L103.789 3.444ZM105.493 8.256C105.717 8.256 105.917 8.228 106.093 8.172C106.269 8.108 106.421 8.032 106.549 7.944C106.677 7.848 106.781 7.744 106.861 7.632C106.949 7.52 107.013 7.412 107.053 7.308V6.312C106.941 6.304 106.825 6.3 106.705 6.3C106.593 6.292 106.481 6.288 106.369 6.288C106.121 6.288 105.877 6.304 105.637 6.336C105.405 6.36 105.197 6.412 105.013 6.492C104.837 6.564 104.693 6.668 104.581 6.804C104.477 6.932 104.425 7.096 104.425 7.296C104.425 7.576 104.525 7.808 104.725 7.992C104.925 8.168 105.181 8.256 105.493 8.256ZM117.686 10.524H117.038L116.858 9H109.838V3H110.798V8.16H112.85V3H113.81V8.16H115.862V3H116.822V8.16H117.686V10.524ZM122.617 5.448L122.653 4.704H122.617L122.125 5.472L119.425 9H118.873V3H119.833V6.66L119.797 7.368H119.845L120.313 6.624L123.013 3H123.577V9H122.617V5.448ZM133.272 10.524H132.624L132.444 9H125.424V3H126.384V8.16H128.436V3H129.396V8.16H131.448V3H132.408V8.16H133.272V10.524ZM138.839 8.52C138.599 8.712 138.295 8.864 137.927 8.976C137.567 9.088 137.183 9.144 136.775 9.144C136.319 9.144 135.923 9.072 135.587 8.928C135.251 8.776 134.975 8.564 134.759 8.292C134.543 8.012 134.383 7.68 134.279 7.296C134.175 6.912 134.123 6.48 134.123 6C134.123 4.976 134.351 4.196 134.807 3.66C135.263 3.124 135.915 2.856 136.763 2.856C137.035 2.856 137.307 2.888 137.579 2.952C137.851 3.008 138.095 3.12 138.311 3.288C138.527 3.456 138.703 3.696 138.839 4.008C138.975 4.312 139.043 4.716 139.043 5.22C139.043 5.484 139.019 5.776 138.971 6.096H135.119C135.119 6.448 135.155 6.76 135.227 7.032C135.299 7.304 135.411 7.536 135.563 7.728C135.715 7.912 135.911 8.056 136.151 8.16C136.399 8.256 136.699 8.304 137.051 8.304C137.323 8.304 137.595 8.256 137.867 8.16C138.139 8.064 138.343 7.952 138.479 7.824L138.839 8.52ZM136.775 3.696C136.303 3.696 135.923 3.82 135.635 4.068C135.355 4.316 135.187 4.74 135.131 5.34H138.107C138.107 4.732 137.991 4.308 137.759 4.068C137.527 3.82 137.199 3.696 136.775 3.696ZM144.225 6.348H141.513V9H140.553V3H141.513V5.508H144.225V3H145.185V9H144.225V6.348ZM147.993 8.16C148.289 8.208 148.573 8.232 148.845 8.232C149.349 8.232 149.701 8.136 149.901 7.944C150.101 7.744 150.201 7.464 150.201 7.104C150.201 6.784 150.101 6.52 149.901 6.312C149.709 6.104 149.369 6 148.881 6C148.745 6 148.597 6.004 148.437 6.012C148.277 6.02 148.129 6.044 147.993 6.084V8.16ZM147.993 5.292C148.185 5.26 148.369 5.24 148.545 5.232C148.721 5.216 148.889 5.208 149.049 5.208C149.457 5.208 149.797 5.256 150.069 5.352C150.349 5.44 150.573 5.564 150.741 5.724C150.909 5.884 151.025 6.076 151.089 6.3C151.161 6.516 151.197 6.748 151.197 6.996C151.197 7.724 150.993 8.252 150.585 8.58C150.185 8.908 149.533 9.072 148.629 9.072C148.117 9.072 147.585 9.048 147.033 9V3H147.993V5.292ZM152.145 3H153.105V9H152.145V3Z" fill="#D0D0D0"/>
</svg>
